<svg width="626" height="700" viewBox="0 0 626 700" fill="none" xmlns="http://www.w3.org/2000/svg">
<path fill-rule="evenodd" clip-rule="evenodd" d="M353.967 25.8948C306.297 25.8949 260.417 43.3653 224.797 75.0852C218.558 80.6451 212.707 86.5553 207.297 92.7952C209.354 93.7175 211.382 94.6905 213.379 95.7141C211.592 94.8111 209.782 93.9469 207.948 93.1252C191.848 85.9153 174.017 81.9045 155.257 81.9045C83.9376 81.9047 25.9079 139.925 25.9077 211.244C25.9077 263.614 57.198 308.815 102.068 329.145C102.588 341.305 110.028 351.895 121.448 356.505L137.458 362.968L135.887 374.015C122.457 468.295 112.348 564.325 105.818 659.445C105.548 663.264 106.888 667.025 109.498 669.824C112.107 672.624 115.767 674.204 119.597 674.204H587.028C590.968 674.204 594.727 672.524 597.347 669.574C599.967 666.635 601.207 662.705 600.748 658.795L547.328 200.735H547.318L546.967 197.695C546.057 189.885 544.688 182.235 542.898 174.755C522.218 88.4452 444.707 25.8948 353.967 25.8948Z" fill="white"/>
<path d="M353.967 13.3948C449.796 13.3948 531.751 78.9343 554.527 169.694L555.054 171.843L555.055 171.846C556.343 177.225 557.425 182.69 558.291 188.235H558.455L559.744 199.286L613.164 657.347H613.163C614.037 664.806 611.672 672.288 606.679 677.891L606.678 677.89C601.832 683.338 594.962 686.502 587.73 686.695L587.028 686.704H119.596C112.327 686.704 105.347 683.704 100.354 678.348V678.347C95.4004 673.032 92.8386 665.883 93.3472 658.588C99.8979 563.166 110.039 466.834 123.512 372.252L123.705 370.896L116.769 368.096C103.3 362.659 93.7199 351.192 90.6187 337.49C44.8442 313.957 13.4077 266.231 13.4077 211.244L13.4194 209.413C14.4033 132.03 77.6465 69.4047 155.257 69.4045C172.312 69.4045 188.685 72.4336 203.86 77.9836C207.881 73.7413 212.094 69.6617 216.482 65.7522L216.484 65.7502C254.392 31.9928 303.231 13.3949 353.967 13.3948Z" stroke="white" stroke-opacity="0.937255" stroke-width="25"/>
<path d="M353.968 25.8948C306.298 25.8948 260.418 43.3652 224.798 75.0852C218.559 80.6452 212.708 86.5552 207.298 92.7952C209.361 93.7203 211.395 94.6978 213.398 95.7249C211.605 94.8184 209.788 93.9499 207.948 93.1252C191.848 85.9153 174.018 81.9046 155.258 81.9045C83.9386 81.9045 25.9081 139.925 25.9079 211.244C25.9079 263.614 57.198 308.815 102.068 329.145C102.588 341.305 110.028 351.895 121.448 356.505L137.46 362.968L135.888 374.015C122.458 468.295 112.348 564.325 105.818 659.445C105.548 663.265 106.889 667.024 109.499 669.824C112.109 672.624 115.768 674.204 119.598 674.204H587.028C590.968 674.204 594.728 672.524 597.348 669.574C599.968 666.635 601.209 662.705 600.749 658.795L552.728 247.045L547.329 200.735H547.318L546.968 197.695C546.058 189.885 544.688 182.235 542.898 174.755C522.218 88.4452 444.708 25.8948 353.968 25.8948ZM248.868 282.915C251.068 286.205 253.409 289.375 255.879 292.445C258.019 295.085 260.258 297.645 262.598 300.115V378.675C262.598 380.155 261.798 381.005 261.118 381.465C260.448 381.915 259.348 382.345 257.978 381.795L168.528 345.715L155.818 340.585L142.129 335.065L131.778 330.885C130.358 330.305 129.648 329.235 129.678 327.695C129.708 326.155 130.458 325.115 131.908 324.605L144.238 320.204L166.328 312.335L173.648 309.725L210.528 296.585L248.868 282.915ZM102.304 323.695H102.303H102.304ZM288.327 321.123H288.326H288.327ZM103.355 318.754H103.354H103.355ZM356.499 109.525C412.588 109.525 458.208 155.165 458.209 211.244C458.209 267.324 412.589 312.954 356.499 312.954C331.209 312.954 308.038 303.675 290.228 288.335C283.158 282.255 276.928 275.215 271.758 267.425C268.528 262.585 265.708 257.454 263.358 252.074C259.758 243.935 257.219 235.225 255.879 226.135C255.159 221.275 254.789 216.304 254.789 211.244C254.789 206.185 255.159 201.215 255.879 196.355C258.099 181.265 263.648 167.245 271.758 155.065C289.978 127.635 321.159 109.525 356.499 109.525ZM155.258 109.534C167.778 109.534 179.778 111.815 190.858 115.965C199.628 119.255 207.828 123.714 215.248 129.164C224.938 136.264 233.328 145.045 239.998 155.065H239.999C231.769 172.065 227.148 191.125 227.148 211.244C227.148 227.794 230.268 243.625 235.968 258.185C236.121 258.577 236.275 258.969 236.431 259.36C236.275 258.969 236.121 258.577 235.968 258.185L178.048 278.824L148.638 289.305L122.638 298.574C119.148 299.814 115.988 301.625 113.258 303.865C78.0584 287.845 53.5377 252.354 53.5377 211.244C53.538 155.165 99.1686 109.534 155.258 109.534ZM339.548 161.885C305.539 161.885 277.968 189.455 277.968 223.465C277.969 257.475 305.539 285.045 339.548 285.045C373.558 285.045 401.128 257.475 401.129 223.465C401.129 189.455 373.558 161.885 339.548 161.885ZM131.529 161.885C97.5193 161.885 69.9489 189.455 69.9489 223.465C69.9491 257.475 97.5194 285.045 131.529 285.045C165.538 285.045 193.108 257.474 193.108 223.465C193.108 189.456 165.538 161.885 131.529 161.885ZM247.048 280.111H247.047H247.048ZM239.999 267.414L239.998 267.415L239.999 267.414ZM524.908 247.045L571.508 646.574H134.428C140.918 556.955 150.609 466.654 163.249 377.914L163.86 373.618L164.518 373.885L247.648 407.415C251.388 408.925 255.328 409.675 259.248 409.675C265.338 409.675 271.378 407.874 276.578 404.365C285.128 398.595 290.228 388.985 290.228 378.675V322.284C309.618 333.904 332.299 340.585 356.499 340.585C427.819 340.585 485.848 282.564 485.848 211.244C485.848 139.925 427.818 81.895 356.499 81.8948C315.899 81.8948 279.609 100.695 255.879 130.045H255.878C248.998 121.545 241.068 113.925 232.278 107.395C232.089 107.254 231.899 107.116 231.71 106.977C233.044 105.527 234.407 104.106 235.808 102.704C238.178 100.314 240.648 97.9848 243.178 95.7249C273.728 68.5149 313.078 53.5247 353.968 53.5247C429.518 53.5247 494.378 104.085 514.348 174.755C516.718 183.145 518.458 191.825 519.508 200.735L524.908 247.045Z" fill="#1A1A1C"/>
</svg>
