<svg width="948" height="132" viewBox="0 0 948 132" fill="none" xmlns="http://www.w3.org/2000/svg">
<g clip-path="url(#clip0_2201_50)">
<path d="M139.375 101.489C135.709 102.858 131.742 103.469 127.921 103.469C110.968 103.469 101.038 93.8468 101.038 76.8917V16.2924H81.4688V0H120.133V75.5146C120.133 83.4586 123.946 87.7361 131.587 87.7361C134.186 87.7361 136.931 86.9701 138.463 86.2127L139.375 101.489Z" fill="#1A1A1C"/>
<path d="M66.228 79.7663L76.0985 91.282C69.0764 99.8026 57.8634 104.287 44.1032 104.287C17.3401 104.287 0 87.0906 0 63.319C0 39.5475 17.3401 22.5063 41.1085 22.5063C63.3796 22.5063 81.3221 37.4561 81.4683 62.4239L20.3262 74.3872C24.2159 83.5102 32.8816 88.4418 44.5421 88.4418C53.509 88.4418 60.3848 85.6016 66.2194 79.7663H66.228ZM18.0888 62.2776V62.4239L63.2333 53.7484C60.6947 44.0316 52.3215 37.4475 41.1085 37.4475C27.5032 37.4475 18.0888 47.0181 18.0888 62.269V62.2776Z" fill="#1A1A1C"/>
<path d="M211.997 79.6113L221.867 91.127C214.845 99.6476 203.632 104.132 189.872 104.132C163.109 104.132 145.769 86.9356 145.769 63.1641C145.769 39.3925 163.109 22.3428 186.877 22.3428C209.148 22.3428 227.091 37.2925 227.237 62.2604L166.095 74.2236C169.984 83.3466 178.65 88.2782 190.311 88.2782C199.278 88.2782 206.153 85.438 211.988 79.6027L211.997 79.6113ZM163.857 62.114V62.2604L209.002 53.5849C206.463 43.868 198.09 37.2839 186.877 37.2839C173.272 37.2839 163.857 46.8545 163.857 62.1054V62.114Z" fill="#1A1A1C"/>
<path d="M321.476 23.2466L287.243 103.09H267.958L233.726 23.2466H253.157L277.975 82.4516L303.542 23.2466H321.485H321.476Z" fill="#1A1A1C"/>
<path d="M394.27 79.8179L404.14 91.3336C397.11 99.8541 385.905 104.338 372.145 104.338C345.382 104.338 328.042 87.1421 328.042 63.3706C328.042 39.5991 345.382 22.5493 369.15 22.5493C391.422 22.5493 409.364 37.499 409.51 62.4669L348.368 74.4301C352.258 83.5532 360.924 88.4848 372.584 88.4848C381.551 88.4848 388.427 85.6446 394.261 79.8093L394.27 79.8179ZM346.139 62.3206V62.4669L391.284 53.7914C388.745 44.0745 380.372 37.4904 369.159 37.4904C355.554 37.4904 346.139 47.061 346.139 62.312V62.3206Z" fill="#1A1A1C"/>
<path d="M504.524 57.3375V103.09H485.833V59.7302C485.833 45.5292 478.811 38.6439 466.849 38.6439C453.545 38.6439 444.578 46.717 444.578 62.7167V103.082H425.887V23.2467H443.674V33.566C449.801 26.2418 459.517 22.3516 471.178 22.3516C490.316 22.3516 504.515 33.2648 504.515 57.3375H504.524Z" fill="#1A1A1C"/>
<path d="M684.242 22.2998V66.8133C684.242 90.1976 671.721 103.934 648.632 103.934C637.015 103.934 627.815 100.465 621.929 91.4111C616.344 100.009 607.592 103.934 595.226 103.934C571.991 103.934 559.771 90.2062 559.771 66.8133V22.2998H578.635V65.1523C578.635 80.2397 583.462 87.4865 595.381 87.4865C607.3 87.4865 612.583 80.2397 612.583 65.1523V22.2998H631.447V65.1523C631.447 80.2397 636.877 87.4865 648.649 87.4865C660.422 87.4865 665.395 80.2397 665.395 65.1523V22.2998H684.259H684.242Z" fill="#1A1A1C"/>
<path d="M559.9 22.3428H540.331V38.6351H559.9V22.3428Z" fill="black"/>
<path d="M736.786 22.0848C723.887 22.0848 711.443 25.3811 702.889 31.9824L710.238 45.6325C716.236 40.6837 725.539 37.68 734.532 37.68C746.261 37.68 752.775 42.6632 754.187 51.3043L733.783 55.2806C708.947 59.8679 700.488 66.779 700.488 80.1279C700.488 93.4768 712.037 104.123 730.332 104.123C742.328 104.123 751.028 100.224 755.529 93.3219V103.073H773.231V56.124C773.231 33.0238 759.883 22.0762 736.786 22.0762V22.0848ZM754.479 78.0365C751.33 86.2903 743.378 90.4903 734.23 90.4903C724.635 90.4903 718.93 86.144 718.93 79.3878C718.93 73.5353 722.656 69.843 735.125 67.7344L754.479 63.6979V78.0365Z" fill="#1A1A1C"/>
<path d="M871.437 22.0848L834.055 108.375C826.732 126.466 816.56 132 803.256 132C795.33 132 786.957 129.306 781.871 124.676L789.349 110.914C792.938 114.357 798.024 116.448 803.109 116.448C809.693 116.448 813.574 113.307 817.162 105.38L818.505 102.238L783.661 22.0762H803.101L828.22 81.1521L853.495 22.0762H871.437V22.0848Z" fill="#1A1A1C"/>
<path d="M878.089 94.845L885.257 80.6526C892.279 85.283 903.036 88.5708 913.044 88.5708C924.843 88.5708 929.773 85.283 929.773 79.7576C929.773 64.5152 880.473 78.8625 880.473 47.0351C880.473 31.9477 894.069 22.0845 915.583 22.0845C926.194 22.0845 938.293 24.6234 945.461 28.9612L938.293 43.1535C930.677 38.6695 923.053 37.1805 915.437 37.1805C904.086 37.1805 898.708 40.9158 898.708 46.1486C898.708 62.2861 948.009 47.9388 948.009 79.1723C948.009 94.1134 934.266 103.822 911.857 103.822C898.561 103.822 885.266 99.9401 878.097 94.8536L878.089 94.845Z" fill="#1A1A1C"/>
</g>
<defs>
<clipPath id="clip0_2201_50">
<rect width="948" height="132" fill="white"/>
</clipPath>
</defs>
</svg>
