<svg width="100%" height="100%" viewBox="0 0 275.43 341.961" fill="none" xmlns="http://www.w3.org/2000/svg">
<g id="illustration/magnifying-glass">
<path id="body" d="M273.261 139.942C273.261 139.942 273.255 139.936 273.253 139.934L267.078 133.407L269.563 133.276L269.076 124.078L258.768 124.624L257.413 123.192L267.139 119.219L263.657 110.692L250.623 116.015L250.248 115.616L259.489 105.7L252.75 99.4205L243.904 108.913L226.547 90.5664C234.618 80.4552 238.915 67.8358 238.685 54.7982C238.442 40.9434 233.082 27.7427 223.595 17.6276C213.397 6.75629 199.576 0.506531 184.678 0.0292554C170.859 -0.412667 157.65 4.16368 147.133 12.9687C129.676 14.7207 115.499 28.4026 113.427 46.164L101.974 144.343L60.8144 149.973C59.2176 135.896 47.2582 124.924 32.7887 124.924C31.4845 124.924 30.1784 125.013 28.9076 125.188L18.2092 126.649C16.8108 126.839 15.7678 128.035 15.7678 129.446V168.849L2.44141 170.672C1.04297 170.865 3.48613e-05 172.059 3.48613e-05 173.471V193.581C3.48613e-05 203.033 1.99163 212.121 5.91787 220.592C6.71725 222.324 7.61878 224.058 8.59297 225.742C9.76946 227.778 11.0795 229.776 12.4839 231.681C14.4499 234.352 16.6399 236.89 18.9948 239.225C22.6677 242.87 26.7687 246.068 31.186 248.729C35.3165 251.218 39.6906 253.225 44.2374 254.724C48.0753 258.405 52.2254 261.759 56.6623 264.751C64.3479 269.93 72.6953 273.903 81.5043 276.574V339.137C81.5043 340.696 82.7672 341.961 84.3267 341.961H109.642C111.201 341.961 112.466 340.696 112.466 339.137V325.457C112.466 323.897 111.201 322.633 109.642 322.633H100.831V280.234C106.391 280.677 112.011 280.617 117.608 280.049V339.137C117.608 340.696 118.873 341.961 120.433 341.961H145.746C147.306 341.961 148.57 340.696 148.57 339.137V325.457C148.57 323.897 147.306 322.633 145.746 322.633H136.937V275.993C152.85 270.837 167.047 261.469 178.097 248.802C182.182 244.124 185.757 239.078 188.789 233.749C192.833 234.531 196.928 234.924 201.051 234.924C202.844 234.924 204.641 234.851 206.443 234.702C215.921 233.92 224.962 231.106 233.315 226.339C246.989 218.535 257.37 206.05 262.543 191.179C266.884 178.707 267.31 165.273 263.865 152.646C264.977 153.192 266.19 153.465 267.404 153.465C269.374 153.465 271.35 152.746 272.898 151.296C276.127 148.264 276.29 143.171 273.261 139.942ZM183.058 232.368C180.393 236.852 177.313 241.111 173.842 245.09C163.03 257.483 149.012 266.514 133.303 271.21C132.107 271.568 131.288 272.668 131.288 273.915V325.457C131.288 327.016 132.553 328.281 134.113 328.281H142.924V336.312H123.257V276.871C123.257 276.056 122.904 275.28 122.291 274.744C121.676 274.208 120.861 273.962 120.052 274.074C112.808 275.058 105.5 275.141 98.3287 274.318C97.5294 274.227 96.728 274.481 96.1289 275.017C95.5279 275.553 95.1842 276.319 95.1842 277.124V325.457C95.1842 327.016 96.4471 328.281 98.0066 328.281H106.818V336.312H87.1511V274.455C87.1511 273.186 86.3065 272.075 85.0848 271.735C76.0991 269.237 67.5984 265.31 59.8206 260.066C58.5557 259.214 57.3183 258.326 56.1026 257.413C57.1062 257.54 58.1118 257.648 59.1175 257.729C60.8105 257.864 62.5134 257.931 64.2202 257.931C67.1644 257.931 70.1223 257.731 73.0586 257.328C76.1501 256.908 79.2318 256.256 82.2172 255.394C88.9089 253.465 95.2078 250.475 100.937 246.51C106.554 242.619 111.5 237.882 115.632 232.427C119.79 226.942 123.023 220.867 125.241 214.373C127.525 207.686 128.682 200.689 128.682 193.581V174.019C128.682 168.824 126.437 163.884 122.521 160.469C118.606 157.051 113.407 155.496 108.259 156.201L21.4166 168.078V131.911L29.6756 130.783C30.695 130.642 31.7418 130.571 32.7887 130.571C45.2273 130.571 55.3484 140.716 55.3484 153.184C55.3484 153.999 55.6999 154.775 56.3147 155.311C56.9295 155.847 57.7465 156.091 58.5538 155.981L104.908 149.643C106.207 149.466 107.199 148.419 107.334 147.142L119.036 46.818C120.47 34.5326 128.715 24.5392 139.732 20.4362C134.521 26.7803 130.776 34.1928 128.77 42.2024C126.241 52.3077 126.571 62.8824 129.727 72.7834C132.259 80.7262 136.454 87.8559 142.195 93.9721C149.678 101.95 159.233 107.511 169.824 110.052C176.922 111.757 184.223 112.054 191.348 110.964C192.26 119.896 193.012 128.856 193.607 137.827C194.713 154.529 195.271 171.269 195.271 187.939C195.271 203.677 191.005 219.011 183.058 232.368ZM199.054 134.717C198.474 126.403 197.759 118.101 196.909 109.82C198.256 109.471 199.594 109.072 200.918 108.62C205.873 106.933 210.546 104.561 214.833 101.559L229.674 117.245L199.054 134.717ZM269.673 147.857C268.337 149.108 266.234 149.042 264.975 147.698L260.402 142.864L233.889 114.841L216.833 96.8142C216.371 96.3271 215.748 96.0776 215.12 96.0776C214.621 96.0776 214.12 96.2348 213.698 96.5569C213.254 96.8927 212.806 97.2227 212.353 97.5429C208.367 100.363 204.017 102.585 199.397 104.158C198.788 104.366 198.178 104.561 197.565 104.745C197.18 104.861 196.793 104.971 196.406 105.077C194.574 105.578 192.721 105.977 190.855 106.271C184.262 107.308 177.498 107.047 170.924 105.47C161.231 103.142 152.485 98.0516 145.632 90.7471C140.374 85.1455 136.534 78.6207 134.219 71.3536C131.33 62.2853 131.027 52.6023 133.343 43.3475C135.719 33.8609 140.759 25.2935 147.922 18.5664L147.946 18.5429C150.153 16.4727 152.51 14.6205 154.991 12.9962C163.694 7.29642 173.915 4.40527 184.529 4.74113C198.168 5.17716 210.821 10.8986 220.156 20.8526C228.841 30.1134 233.749 42.1985 233.973 54.8807C234.195 67.4745 229.806 79.6381 221.615 89.1287C220.826 90.0439 220.855 91.409 221.688 92.2889L239.82 111.455L260.901 133.735L269.826 143.169C271.073 144.502 271.004 146.606 269.673 147.857Z" fill="#022E38"/>
<path id="lens" d="M227.647 57.927C227.659 57.6972 227.667 57.4654 227.675 57.2336C227.855 51.5947 226.995 46.0815 225.178 40.9139C223.697 36.7009 221.578 32.7177 218.867 29.0842C217.852 27.723 216.754 26.4091 215.574 25.152C207.385 16.4236 196.29 11.4053 184.329 11.0223C177.225 10.7945 170.319 12.2165 164.055 15.1292C163.916 15.1941 163.776 15.2589 163.637 15.3256C161.422 16.3823 159.287 17.6276 157.256 19.0535C155.506 20.2771 153.832 21.6363 152.245 23.1251C149.152 26.028 146.498 29.3297 144.359 32.9358C142.484 36.0901 141.015 39.4801 139.972 42.9978C138.308 48.5995 137.731 54.531 138.326 60.3782C138.561 62.682 138.966 64.9407 139.538 67.1445C139.539 67.1543 139.543 67.1661 139.545 67.1779C141.413 74.3566 145.037 80.9285 150.218 86.4535C156.531 93.1825 164.623 97.7412 173.621 99.6366C176.71 100.287 179.827 100.611 182.934 100.611C184.456 100.611 185.975 100.534 187.487 100.377C188.381 100.285 189.269 100.167 190.154 100.022C192.02 99.7171 193.868 99.2909 195.691 98.7468C197.056 98.3403 198.407 97.8669 199.739 97.3268C202.294 96.2917 204.734 95.0288 207.042 93.5498C207.055 93.542 207.067 93.5321 207.081 93.5243C208.583 92.5599 210.029 91.5032 211.412 90.3582C212.14 89.7571 212.851 89.1286 213.545 88.4785C218.824 83.5251 222.749 77.511 225.107 70.8822C226.575 66.7634 227.439 62.409 227.649 57.927H227.647ZM215.764 32.8356C218.082 36.1392 219.869 39.7414 221.085 43.5399H190.834C190.492 42.5795 190.093 41.6446 189.644 40.7411C191.13 38.4431 193.055 36.4515 195.296 34.8822C195.939 34.4324 196.61 34.016 197.304 33.6389C197.999 33.2598 198.718 32.92 199.456 32.6215C201.898 31.6316 204.563 31.0856 207.356 31.0856C210.343 31.0856 213.187 31.7102 215.764 32.8356ZM201.079 55.5052H192.105C192.246 54.4151 192.319 53.3035 192.319 52.1741C192.319 50.8425 192.217 49.5324 192.02 48.2538H201.259C201.108 48.7114 200.982 49.1808 200.882 49.662V49.666C200.717 50.4752 200.631 51.3138 200.631 52.1741C200.631 53.327 200.788 54.4446 201.079 55.5052ZM182.862 15.7126C183.3 15.7126 183.738 15.7204 184.178 15.7342C194.01 16.0484 203.188 19.8627 210.296 26.5387C209.332 26.4287 208.35 26.3717 207.356 26.3717C203.496 26.3717 199.833 27.2222 196.544 28.7483C195.395 27.4049 194.149 26.1321 192.814 24.9419C188.068 20.7171 182.416 17.7533 176.355 16.237C178.488 15.8893 180.662 15.7126 182.862 15.7126ZM155.468 26.5623C157.845 24.335 160.439 22.4278 163.205 20.8644C163.806 20.5227 164.417 20.1986 165.033 19.8902C165.621 19.8234 166.239 19.7881 166.895 19.7881C169.229 19.7881 171.537 20.0257 173.787 20.4873V20.4893C179.654 21.6913 185.136 24.4214 189.675 28.4635C190.636 29.3179 191.541 30.2194 192.389 31.1661C190.325 32.6411 188.485 34.4128 186.933 36.4181C183.975 32.594 179.97 29.6184 175.351 27.9293C174.573 27.6445 173.778 27.397 172.966 27.1888C172.966 27.1888 172.965 27.1868 172.963 27.1868C170.9 26.6546 168.74 26.3698 166.512 26.3698C160.644 26.3698 155.229 28.3398 150.89 31.6512C152.259 29.8364 153.791 28.1335 155.466 26.5623H155.468ZM185.647 61.042C185.234 61.9337 184.759 62.7901 184.229 63.6091C184.105 63.7976 183.981 63.9764 183.857 64.161L183.855 64.1649V64.1669C183.853 64.1669 183.853 64.1689 183.853 64.1689C183.553 64.4497 183.304 64.7876 183.119 65.1666C183.119 65.1666 183.117 65.1706 183.117 65.1725C183.117 65.1725 183.117 65.1738 183.117 65.1764H183.115C182.3 66.2076 181.398 67.1621 180.414 68.0244C176.702 71.2848 171.837 73.2626 166.518 73.2626C157.739 73.2626 150.195 67.8673 147.027 60.2191H186.012C185.922 60.441 185.827 60.661 185.727 60.877C185.68 60.881 185.635 60.8849 185.59 60.8888C185.607 60.9419 185.629 60.9929 185.651 61.042H185.647ZM166.514 31.0836C173.933 31.0836 180.467 34.9332 184.229 40.7391C184.759 41.5582 185.234 42.4145 185.647 43.3062C185.613 43.3848 185.582 43.4614 185.552 43.5399H147.276C150.58 36.204 157.961 31.0836 166.514 31.0836ZM145.791 48.2538H165.026C164.328 49.8113 163.939 51.5377 163.939 53.3545C163.939 54.0871 164.002 54.806 164.126 55.5052H145.689C145.516 54.4191 145.426 53.3074 145.426 52.1741C145.426 50.8346 145.552 49.5245 145.791 48.2538ZM197.968 92.9586C197.027 93.3397 196.076 93.6834 195.118 93.9898C193.303 94.5731 191.457 95.0209 189.593 95.3371C184.653 96.1739 179.58 96.0757 174.591 95.0249C166.542 93.3298 159.302 89.2504 153.655 83.2285C148.777 78.0256 145.442 71.7896 143.857 64.9702V64.9663C143.809 64.7286 143.762 64.491 143.717 64.2514C148.056 72.4102 156.647 77.9765 166.514 77.9765C171.627 77.9765 176.398 76.4818 180.41 73.9088V86.153C180.41 88.0975 181.373 89.9084 182.985 90.9965C183.965 91.6584 185.105 91.9962 186.252 91.9962C186.99 91.9962 187.733 91.8568 188.44 91.572L189.086 91.3107L194.499 89.1286L205.838 84.5542L206.044 86.0018C206.154 86.7737 206.262 87.5416 206.368 88.3057C203.767 90.1892 200.955 91.7468 197.968 92.9586ZM209.842 77.8547C209.778 77.8626 209.713 77.8685 209.648 77.8743L209.656 77.9293L207.405 78.8387L205.154 79.7461L193.855 84.3048L188.451 86.483L186.676 87.1999C186.191 87.3943 185.808 87.2136 185.621 87.0879C185.437 86.9642 185.124 86.6755 185.124 86.153V70.0278C185.765 69.3619 186.37 68.6608 186.935 67.9301C187.373 67.3644 187.788 66.7811 188.176 66.1801L188.693 66.3647L193.535 68.0892L204.025 71.8288L206.533 72.7225L208.01 73.2489L209.041 73.6162L212.243 74.7573C212.423 74.8221 212.561 74.9105 212.665 75.0127C212.944 75.2798 212.989 75.6274 212.991 75.7983C212.997 76.032 212.938 76.6055 212.286 76.8687L209.842 77.8547ZM210.626 84.7467L210.341 82.7375L213.798 81.3429C212.814 82.5293 211.755 83.6665 210.626 84.7467ZM221.032 68.211C219.468 69.5485 217.707 70.6582 215.8 71.495C215.24 70.9882 214.574 70.5856 213.826 70.3185L208.293 68.3465L205.785 67.4528L203.278 66.5592L190.39 61.9651C190.626 61.3936 190.84 60.8103 191.034 60.2191H222.743C222.442 62.959 221.869 65.6341 221.032 68.211Z" fill="#022E38"/>
</g>
</svg>
