<svg width="122" height="137" viewBox="0 0 122 137" fill="none" xmlns="http://www.w3.org/2000/svg">
<g clip-path="url(#clip0_180_59)">
<mask id="mask0_180_59" style="mask-type:luminance" maskUnits="userSpaceOnUse" x="0" y="0" width="122" height="138">
<path d="M122 0H0V137.001H122V0Z" fill="white"/>
</mask>
<g mask="url(#mask0_180_59)">
<path d="M102.003 137H2.92808C2.09204 137 1.29612 136.644 0.740984 136.021C0.185848 135.398 -0.0776737 134.569 0.0199766 133.742L9.5469 52.3122C9.68468 51.1346 10.5234 50.157 11.6685 49.8383C12.8135 49.5209 14.0388 49.9237 14.7678 50.8612C15.4889 51.7868 16.5724 52.3175 17.7428 52.3175H28.0055C29.1331 52.3175 29.9357 51.8441 30.412 51.448C31.2707 50.7318 31.7617 49.6849 31.7617 48.574V29.1628C31.7617 28.0959 31.3256 27.1117 30.5324 26.3928C29.8408 25.7647 28.9432 25.4179 28.0055 25.4179H18.9026C17.8646 25.4179 16.9028 24.8698 16.3771 23.9776C15.8514 23.0854 15.8393 21.9811 16.345 21.0769C23.6152 8.07522 37.4026 0 52.3271 0C62.4319 0 72.1541 3.69153 79.7053 10.3944C81.6182 12.0922 83.3826 13.9793 84.9476 16.0011C85.468 16.6732 85.6686 17.5374 85.4988 18.3683C85.3289 19.1991 84.8045 19.9166 84.0608 20.3314C81.0617 22.0078 78.5134 24.3657 76.6193 27.205C78.4064 30.8952 79.3441 34.9708 79.3441 39.0958C79.3441 43.6315 78.2058 48.1272 76.0508 52.0962C75.9678 52.2469 75.8889 52.3896 75.81 52.5309C74.7037 54.4794 73.3687 56.2785 71.8304 57.8962V74.4787C71.8304 74.7908 72.0003 74.9708 72.1434 75.0669C72.2865 75.1629 72.5193 75.2536 72.8096 75.1375L93.8967 66.6556C94.7314 66.3195 95.6745 66.3848 96.4557 66.8343C97.2355 67.2824 97.7652 68.0639 97.8923 68.9521L98.5505 73.5652C101.397 93.4925 103.541 113.787 104.924 133.882C104.981 134.689 104.697 135.482 104.143 136.074C103.589 136.665 102.815 137.001 102.003 137.001V137ZM6.21876 131.161H98.8621C97.4857 112.228 95.4337 93.1458 92.7543 74.388L92.6232 73.4651L75.0034 80.5521C72.9741 81.3683 70.6813 81.1256 68.8701 79.9067C67.0589 78.6877 65.9767 76.6579 65.9767 74.4787V56.6946C65.9767 55.8997 66.3018 55.1409 66.8756 54.5901C68.3886 53.1391 69.6794 51.4827 70.7108 49.6649C70.7736 49.5542 70.8419 49.4315 70.9074 49.3102C72.5956 46.2001 73.4905 42.666 73.4905 39.0971C73.4905 35.5283 72.5287 31.7354 70.7108 28.528C70.2051 27.6358 70.2051 26.5449 70.7108 25.654C72.6076 22.3119 75.1799 19.4152 78.2539 17.1413C77.4794 16.3065 76.6634 15.509 75.814 14.7554C69.337 9.00477 60.9979 5.8387 52.3311 5.8387C41.2832 5.8387 30.9631 10.9959 24.3336 19.5766H28.0095C30.4093 19.5766 32.7074 20.4634 34.4798 22.0732C36.477 23.8856 37.622 26.4688 37.622 29.1601V48.5713C37.622 51.416 36.366 54.0966 34.1748 55.9237C32.4519 57.3627 30.2621 58.1549 28.0095 58.1549H17.7469C16.7356 58.1549 15.7497 58.0002 14.816 57.7041L6.21876 131.161Z" fill="#00799E"/>
<path d="M28.0051 58.1545H17.7424C14.75 58.1545 11.9797 56.8009 10.1417 54.439C8.82547 52.7426 8.12988 50.7155 8.12988 48.5709V29.1597C8.12988 23.8758 12.4425 19.5762 17.7424 19.5762H28.0051C30.4049 19.5762 32.703 20.463 34.4754 22.0728C36.4725 23.8852 37.6176 26.4684 37.6176 29.1597V48.5709C37.6176 51.4156 36.3615 54.0962 34.1704 55.9233C32.4475 57.3623 30.2577 58.1545 28.0051 58.1545ZM17.7424 25.4149C15.6717 25.4149 13.9862 27.0953 13.9862 29.1597V48.5709C13.9862 49.4098 14.2578 50.202 14.7701 50.8622C15.4884 51.785 16.572 52.3158 17.7424 52.3158H28.0051C29.1327 52.3158 29.9353 51.8424 30.4115 51.4463C31.2703 50.7301 31.7613 49.6832 31.7613 48.5723V29.1611C31.7613 28.0942 31.3252 27.1099 30.5319 26.3911C29.8404 25.763 28.9428 25.4162 28.0051 25.4162H17.7424V25.4149Z" fill="#00799E"/>
<path d="M81.8768 103.777H70.108C66.2648 103.777 63.1387 100.661 63.1387 96.829V90.6436C63.1387 86.812 66.2648 83.6953 70.108 83.6953H81.8768C85.72 83.6953 88.8461 86.812 88.8461 90.6436V96.829C88.8461 100.661 85.72 103.777 81.8768 103.777ZM70.1066 89.5353C69.494 89.5353 68.995 90.0328 68.995 90.6436V96.829C68.995 97.4399 69.494 97.9373 70.1066 97.9373H81.8755C82.4881 97.9373 82.9871 97.4399 82.9871 96.829V90.6436C82.9871 90.0328 82.4881 89.5353 81.8755 89.5353H70.1066Z" fill="#00799E"/>
<path d="M66.067 96.657C56.7381 96.657 49.8771 96.1729 44.4743 95.134C38.218 93.9311 33.4398 91.8679 29.8682 88.8285C26.1602 85.6731 23.5985 81.3654 22.0348 75.6561C20.6101 70.4509 19.9453 63.9614 19.9453 55.2354H25.8017C25.8017 63.4279 26.3996 69.428 27.6838 74.1184C28.9439 78.7222 30.846 81.9843 33.6685 84.3862C36.4883 86.7854 40.274 88.3791 45.5819 89.3993C50.6102 90.3662 57.1193 90.817 66.0657 90.817V96.6557L66.067 96.657Z" fill="#00799E"/>
<mask id="mask1_180_59" style="mask-type:luminance" maskUnits="userSpaceOnUse" x="10" y="21" width="24" height="34">
<path d="M18.0479 21.8623C17.5984 36.8058 33.8351 46.6748 33.8351 46.6748C33.8351 46.6748 34.5534 53.9285 29.2509 54.2659C23.9484 54.602 13.8543 54.2659 13.8543 54.2659C13.8543 54.2659 10.2051 53.4337 10.2051 46.1586V25.6685L18.0492 21.8623H18.0479Z" fill="white"/>
</mask>
<g mask="url(#mask1_180_59)">
<path d="M32.5802 24.1431C33.104 24.1431 33.5287 23.7197 33.5287 23.1975C33.5287 22.6753 33.104 22.252 32.5802 22.252C32.0565 22.252 31.6318 22.6753 31.6318 23.1975C31.6318 23.7197 32.0565 24.1431 32.5802 24.1431Z" fill="#00799E"/>
<path d="M32.5802 27.9243C33.104 27.9243 33.5287 27.501 33.5287 26.9788C33.5287 26.4565 33.104 26.0332 32.5802 26.0332C32.0565 26.0332 31.6318 26.4565 31.6318 26.9788C31.6318 27.501 32.0565 27.9243 32.5802 27.9243Z" fill="#00799E"/>
<path d="M32.5802 31.7046C33.104 31.7046 33.5287 31.2812 33.5287 30.759C33.5287 30.2368 33.104 29.8135 32.5802 29.8135C32.0565 29.8135 31.6318 30.2368 31.6318 30.759C31.6318 31.2812 32.0565 31.7046 32.5802 31.7046Z" fill="#00799E"/>
<path d="M32.5802 35.4849C33.104 35.4849 33.5287 35.0615 33.5287 34.5393C33.5287 34.0171 33.104 33.5938 32.5802 33.5938C32.0565 33.5938 31.6318 34.0171 31.6318 34.5393C31.6318 35.0615 32.0565 35.4849 32.5802 35.4849Z" fill="#00799E"/>
<path d="M32.5802 39.2651C33.104 39.2651 33.5287 38.8418 33.5287 38.3196C33.5287 37.7974 33.104 37.374 32.5802 37.374C32.0565 37.374 31.6318 37.7974 31.6318 38.3196C31.6318 38.8418 32.0565 39.2651 32.5802 39.2651Z" fill="#00799E"/>
<path d="M32.5802 43.0454C33.104 43.0454 33.5287 42.6221 33.5287 42.0999C33.5287 41.5776 33.104 41.1543 32.5802 41.1543C32.0565 41.1543 31.6318 41.5776 31.6318 42.0999C31.6318 42.6221 32.0565 43.0454 32.5802 43.0454Z" fill="#00799E"/>
<path d="M32.5802 46.8257C33.104 46.8257 33.5287 46.4023 33.5287 45.8801C33.5287 45.3579 33.104 44.9346 32.5802 44.9346C32.0565 44.9346 31.6318 45.3579 31.6318 45.8801C31.6318 46.4023 32.0565 46.8257 32.5802 46.8257Z" fill="#00799E"/>
<path d="M32.5802 50.606C33.104 50.606 33.5287 50.1826 33.5287 49.6604C33.5287 49.1382 33.104 48.7148 32.5802 48.7148C32.0565 48.7148 31.6318 49.1382 31.6318 49.6604C31.6318 50.1826 32.0565 50.606 32.5802 50.606Z" fill="#00799E"/>
<path d="M32.5802 54.3872C33.104 54.3872 33.5287 53.9639 33.5287 53.4416C33.5287 52.9194 33.104 52.4961 32.5802 52.4961C32.0565 52.4961 31.6318 52.9194 31.6318 53.4416C31.6318 53.9639 32.0565 54.3872 32.5802 54.3872Z" fill="#00799E"/>
<path d="M28.7892 24.1431C29.313 24.1431 29.7376 23.7197 29.7376 23.1975C29.7376 22.6753 29.313 22.252 28.7892 22.252C28.2654 22.252 27.8408 22.6753 27.8408 23.1975C27.8408 23.7197 28.2654 24.1431 28.7892 24.1431Z" fill="#00799E"/>
<path d="M28.7892 27.9243C29.313 27.9243 29.7376 27.501 29.7376 26.9788C29.7376 26.4565 29.313 26.0332 28.7892 26.0332C28.2654 26.0332 27.8408 26.4565 27.8408 26.9788C27.8408 27.501 28.2654 27.9243 28.7892 27.9243Z" fill="#00799E"/>
<path d="M28.7892 31.7046C29.313 31.7046 29.7376 31.2812 29.7376 30.759C29.7376 30.2368 29.313 29.8135 28.7892 29.8135C28.2654 29.8135 27.8408 30.2368 27.8408 30.759C27.8408 31.2812 28.2654 31.7046 28.7892 31.7046Z" fill="#00799E"/>
<path d="M28.7892 35.4849C29.313 35.4849 29.7376 35.0615 29.7376 34.5393C29.7376 34.0171 29.313 33.5938 28.7892 33.5938C28.2654 33.5938 27.8408 34.0171 27.8408 34.5393C27.8408 35.0615 28.2654 35.4849 28.7892 35.4849Z" fill="#00799E"/>
<path d="M28.7892 39.2651C29.313 39.2651 29.7376 38.8418 29.7376 38.3196C29.7376 37.7974 29.313 37.374 28.7892 37.374C28.2654 37.374 27.8408 37.7974 27.8408 38.3196C27.8408 38.8418 28.2654 39.2651 28.7892 39.2651Z" fill="#00799E"/>
<path d="M28.7892 43.0454C29.313 43.0454 29.7376 42.6221 29.7376 42.0999C29.7376 41.5776 29.313 41.1543 28.7892 41.1543C28.2654 41.1543 27.8408 41.5776 27.8408 42.0999C27.8408 42.6221 28.2654 43.0454 28.7892 43.0454Z" fill="#00799E"/>
<path d="M28.7892 46.8257C29.313 46.8257 29.7376 46.4023 29.7376 45.8801C29.7376 45.3579 29.313 44.9346 28.7892 44.9346C28.2654 44.9346 27.8408 45.3579 27.8408 45.8801C27.8408 46.4023 28.2654 46.8257 28.7892 46.8257Z" fill="#00799E"/>
<path d="M28.7892 50.606C29.313 50.606 29.7376 50.1826 29.7376 49.6604C29.7376 49.1382 29.313 48.7148 28.7892 48.7148C28.2654 48.7148 27.8408 49.1382 27.8408 49.6604C27.8408 50.1826 28.2654 50.606 28.7892 50.606Z" fill="#00799E"/>
<path d="M28.7892 54.3872C29.313 54.3872 29.7376 53.9639 29.7376 53.4416C29.7376 52.9194 29.313 52.4961 28.7892 52.4961C28.2654 52.4961 27.8408 52.9194 27.8408 53.4416C27.8408 53.9639 28.2654 54.3872 28.7892 54.3872Z" fill="#00799E"/>
<path d="M24.9972 24.1431C25.521 24.1431 25.9457 23.7197 25.9457 23.1975C25.9457 22.6753 25.521 22.252 24.9972 22.252C24.4734 22.252 24.0488 22.6753 24.0488 23.1975C24.0488 23.7197 24.4734 24.1431 24.9972 24.1431Z" fill="#00799E"/>
<path d="M24.9972 27.9243C25.521 27.9243 25.9457 27.501 25.9457 26.9788C25.9457 26.4565 25.521 26.0332 24.9972 26.0332C24.4734 26.0332 24.0488 26.4565 24.0488 26.9788C24.0488 27.501 24.4734 27.9243 24.9972 27.9243Z" fill="#00799E"/>
<path d="M24.9972 31.7046C25.521 31.7046 25.9457 31.2812 25.9457 30.759C25.9457 30.2368 25.521 29.8135 24.9972 29.8135C24.4734 29.8135 24.0488 30.2368 24.0488 30.759C24.0488 31.2812 24.4734 31.7046 24.9972 31.7046Z" fill="#00799E"/>
<path d="M24.9972 35.4849C25.521 35.4849 25.9457 35.0615 25.9457 34.5393C25.9457 34.0171 25.521 33.5938 24.9972 33.5938C24.4734 33.5938 24.0488 34.0171 24.0488 34.5393C24.0488 35.0615 24.4734 35.4849 24.9972 35.4849Z" fill="#00799E"/>
<path d="M24.9972 39.2651C25.521 39.2651 25.9457 38.8418 25.9457 38.3196C25.9457 37.7974 25.521 37.374 24.9972 37.374C24.4734 37.374 24.0488 37.7974 24.0488 38.3196C24.0488 38.8418 24.4734 39.2651 24.9972 39.2651Z" fill="#00799E"/>
<path d="M24.9972 43.0454C25.521 43.0454 25.9457 42.6221 25.9457 42.0999C25.9457 41.5776 25.521 41.1543 24.9972 41.1543C24.4734 41.1543 24.0488 41.5776 24.0488 42.0999C24.0488 42.6221 24.4734 43.0454 24.9972 43.0454Z" fill="#00799E"/>
<path d="M24.9972 46.8257C25.521 46.8257 25.9457 46.4023 25.9457 45.8801C25.9457 45.3579 25.521 44.9346 24.9972 44.9346C24.4734 44.9346 24.0488 45.3579 24.0488 45.8801C24.0488 46.4023 24.4734 46.8257 24.9972 46.8257Z" fill="#00799E"/>
<path d="M24.9972 50.606C25.521 50.606 25.9457 50.1826 25.9457 49.6604C25.9457 49.1382 25.521 48.7148 24.9972 48.7148C24.4734 48.7148 24.0488 49.1382 24.0488 49.6604C24.0488 50.1826 24.4734 50.606 24.9972 50.606Z" fill="#00799E"/>
<path d="M24.9972 54.3872C25.521 54.3872 25.9457 53.9639 25.9457 53.4416C25.9457 52.9194 25.521 52.4961 24.9972 52.4961C24.4734 52.4961 24.0488 52.9194 24.0488 53.4416C24.0488 53.9639 24.4734 54.3872 24.9972 54.3872Z" fill="#00799E"/>
<path d="M21.2052 24.1431C21.729 24.1431 22.1537 23.7197 22.1537 23.1975C22.1537 22.6753 21.729 22.252 21.2052 22.252C20.6815 22.252 20.2568 22.6753 20.2568 23.1975C20.2568 23.7197 20.6815 24.1431 21.2052 24.1431Z" fill="#00799E"/>
<path d="M21.2052 27.9243C21.729 27.9243 22.1537 27.501 22.1537 26.9788C22.1537 26.4565 21.729 26.0332 21.2052 26.0332C20.6815 26.0332 20.2568 26.4565 20.2568 26.9788C20.2568 27.501 20.6815 27.9243 21.2052 27.9243Z" fill="#00799E"/>
<path d="M21.2052 31.7046C21.729 31.7046 22.1537 31.2812 22.1537 30.759C22.1537 30.2368 21.729 29.8135 21.2052 29.8135C20.6815 29.8135 20.2568 30.2368 20.2568 30.759C20.2568 31.2812 20.6815 31.7046 21.2052 31.7046Z" fill="#00799E"/>
<path d="M21.2052 35.4849C21.729 35.4849 22.1537 35.0615 22.1537 34.5393C22.1537 34.0171 21.729 33.5938 21.2052 33.5938C20.6815 33.5938 20.2568 34.0171 20.2568 34.5393C20.2568 35.0615 20.6815 35.4849 21.2052 35.4849Z" fill="#00799E"/>
<path d="M21.2052 39.2651C21.729 39.2651 22.1537 38.8418 22.1537 38.3196C22.1537 37.7974 21.729 37.374 21.2052 37.374C20.6815 37.374 20.2568 37.7974 20.2568 38.3196C20.2568 38.8418 20.6815 39.2651 21.2052 39.2651Z" fill="#00799E"/>
<path d="M21.2052 43.0454C21.729 43.0454 22.1537 42.6221 22.1537 42.0999C22.1537 41.5776 21.729 41.1543 21.2052 41.1543C20.6815 41.1543 20.2568 41.5776 20.2568 42.0999C20.2568 42.6221 20.6815 43.0454 21.2052 43.0454Z" fill="#00799E"/>
<path d="M21.2052 46.8257C21.729 46.8257 22.1537 46.4023 22.1537 45.8801C22.1537 45.3579 21.729 44.9346 21.2052 44.9346C20.6815 44.9346 20.2568 45.3579 20.2568 45.8801C20.2568 46.4023 20.6815 46.8257 21.2052 46.8257Z" fill="#00799E"/>
<path d="M21.2052 50.606C21.729 50.606 22.1537 50.1826 22.1537 49.6604C22.1537 49.1382 21.729 48.7148 21.2052 48.7148C20.6815 48.7148 20.2568 49.1382 20.2568 49.6604C20.2568 50.1826 20.6815 50.606 21.2052 50.606Z" fill="#00799E"/>
<path d="M21.2052 54.3872C21.729 54.3872 22.1537 53.9639 22.1537 53.4416C22.1537 52.9194 21.729 52.4961 21.2052 52.4961C20.6815 52.4961 20.2568 52.9194 20.2568 53.4416C20.2568 53.9639 20.6815 54.3872 21.2052 54.3872Z" fill="#00799E"/>
<path d="M17.4133 24.1431C17.937 24.1431 18.3617 23.7197 18.3617 23.1975C18.3617 22.6753 17.937 22.252 17.4133 22.252C16.8895 22.252 16.4648 22.6753 16.4648 23.1975C16.4648 23.7197 16.8895 24.1431 17.4133 24.1431Z" fill="#00799E"/>
<path d="M17.4133 27.9243C17.937 27.9243 18.3617 27.501 18.3617 26.9788C18.3617 26.4565 17.937 26.0332 17.4133 26.0332C16.8895 26.0332 16.4648 26.4565 16.4648 26.9788C16.4648 27.501 16.8895 27.9243 17.4133 27.9243Z" fill="#00799E"/>
<path d="M17.4133 31.7046C17.937 31.7046 18.3617 31.2812 18.3617 30.759C18.3617 30.2368 17.937 29.8135 17.4133 29.8135C16.8895 29.8135 16.4648 30.2368 16.4648 30.759C16.4648 31.2812 16.8895 31.7046 17.4133 31.7046Z" fill="#00799E"/>
<path d="M17.4133 35.4849C17.937 35.4849 18.3617 35.0615 18.3617 34.5393C18.3617 34.0171 17.937 33.5938 17.4133 33.5938C16.8895 33.5938 16.4648 34.0171 16.4648 34.5393C16.4648 35.0615 16.8895 35.4849 17.4133 35.4849Z" fill="#00799E"/>
<path d="M17.4133 39.2651C17.937 39.2651 18.3617 38.8418 18.3617 38.3196C18.3617 37.7974 17.937 37.374 17.4133 37.374C16.8895 37.374 16.4648 37.7974 16.4648 38.3196C16.4648 38.8418 16.8895 39.2651 17.4133 39.2651Z" fill="#00799E"/>
<path d="M17.4133 43.0454C17.937 43.0454 18.3617 42.6221 18.3617 42.0999C18.3617 41.5776 17.937 41.1543 17.4133 41.1543C16.8895 41.1543 16.4648 41.5776 16.4648 42.0999C16.4648 42.6221 16.8895 43.0454 17.4133 43.0454Z" fill="#00799E"/>
<path d="M17.4133 46.8257C17.937 46.8257 18.3617 46.4023 18.3617 45.8801C18.3617 45.3579 17.937 44.9346 17.4133 44.9346C16.8895 44.9346 16.4648 45.3579 16.4648 45.8801C16.4648 46.4023 16.8895 46.8257 17.4133 46.8257Z" fill="#00799E"/>
<path d="M17.4133 50.606C17.937 50.606 18.3617 50.1826 18.3617 49.6604C18.3617 49.1382 17.937 48.7148 17.4133 48.7148C16.8895 48.7148 16.4648 49.1382 16.4648 49.6604C16.4648 50.1826 16.8895 50.606 17.4133 50.606Z" fill="#00799E"/>
<path d="M17.4133 54.3872C17.937 54.3872 18.3617 53.9639 18.3617 53.4416C18.3617 52.9194 17.937 52.4961 17.4133 52.4961C16.8895 52.4961 16.4648 52.9194 16.4648 53.4416C16.4648 53.9639 16.8895 54.3872 17.4133 54.3872Z" fill="#00799E"/>
<path d="M13.6213 24.1431C14.1451 24.1431 14.5697 23.7197 14.5697 23.1975C14.5697 22.6753 14.1451 22.252 13.6213 22.252C13.0975 22.252 12.6729 22.6753 12.6729 23.1975C12.6729 23.7197 13.0975 24.1431 13.6213 24.1431Z" fill="#00799E"/>
<path d="M13.6213 27.9243C14.1451 27.9243 14.5697 27.501 14.5697 26.9788C14.5697 26.4565 14.1451 26.0332 13.6213 26.0332C13.0975 26.0332 12.6729 26.4565 12.6729 26.9788C12.6729 27.501 13.0975 27.9243 13.6213 27.9243Z" fill="#00799E"/>
<path d="M13.6213 31.7046C14.1451 31.7046 14.5697 31.2812 14.5697 30.759C14.5697 30.2368 14.1451 29.8135 13.6213 29.8135C13.0975 29.8135 12.6729 30.2368 12.6729 30.759C12.6729 31.2812 13.0975 31.7046 13.6213 31.7046Z" fill="#00799E"/>
<path d="M13.6213 35.4849C14.1451 35.4849 14.5697 35.0615 14.5697 34.5393C14.5697 34.0171 14.1451 33.5938 13.6213 33.5938C13.0975 33.5938 12.6729 34.0171 12.6729 34.5393C12.6729 35.0615 13.0975 35.4849 13.6213 35.4849Z" fill="#00799E"/>
<path d="M13.6213 39.2651C14.1451 39.2651 14.5697 38.8418 14.5697 38.3196C14.5697 37.7974 14.1451 37.374 13.6213 37.374C13.0975 37.374 12.6729 37.7974 12.6729 38.3196C12.6729 38.8418 13.0975 39.2651 13.6213 39.2651Z" fill="#00799E"/>
<path d="M13.6213 43.0454C14.1451 43.0454 14.5697 42.6221 14.5697 42.0999C14.5697 41.5776 14.1451 41.1543 13.6213 41.1543C13.0975 41.1543 12.6729 41.5776 12.6729 42.0999C12.6729 42.6221 13.0975 43.0454 13.6213 43.0454Z" fill="#00799E"/>
<path d="M13.6213 46.8257C14.1451 46.8257 14.5697 46.4023 14.5697 45.8801C14.5697 45.3579 14.1451 44.9346 13.6213 44.9346C13.0975 44.9346 12.6729 45.3579 12.6729 45.8801C12.6729 46.4023 13.0975 46.8257 13.6213 46.8257Z" fill="#00799E"/>
<path d="M13.6213 50.606C14.1451 50.606 14.5697 50.1826 14.5697 49.6604C14.5697 49.1382 14.1451 48.7148 13.6213 48.7148C13.0975 48.7148 12.6729 49.1382 12.6729 49.6604C12.6729 50.1826 13.0975 50.606 13.6213 50.606Z" fill="#00799E"/>
<path d="M13.6213 54.3872C14.1451 54.3872 14.5697 53.9639 14.5697 53.4416C14.5697 52.9194 14.1451 52.4961 13.6213 52.4961C13.0975 52.4961 12.6729 52.9194 12.6729 53.4416C12.6729 53.9639 13.0975 54.3872 13.6213 54.3872Z" fill="#00799E"/>
<path d="M9.82927 24.1431C10.3531 24.1431 10.7777 23.7197 10.7777 23.1975C10.7777 22.6753 10.3531 22.252 9.82927 22.252C9.30548 22.252 8.88086 22.6753 8.88086 23.1975C8.88086 23.7197 9.30548 24.1431 9.82927 24.1431Z" fill="#00799E"/>
<path d="M9.82927 27.9243C10.3531 27.9243 10.7777 27.501 10.7777 26.9788C10.7777 26.4565 10.3531 26.0332 9.82927 26.0332C9.30548 26.0332 8.88086 26.4565 8.88086 26.9788C8.88086 27.501 9.30548 27.9243 9.82927 27.9243Z" fill="#00799E"/>
<path d="M9.82927 31.7046C10.3531 31.7046 10.7777 31.2812 10.7777 30.759C10.7777 30.2368 10.3531 29.8135 9.82927 29.8135C9.30548 29.8135 8.88086 30.2368 8.88086 30.759C8.88086 31.2812 9.30548 31.7046 9.82927 31.7046Z" fill="#00799E"/>
<path d="M9.82927 35.4849C10.3531 35.4849 10.7777 35.0615 10.7777 34.5393C10.7777 34.0171 10.3531 33.5938 9.82927 33.5938C9.30548 33.5938 8.88086 34.0171 8.88086 34.5393C8.88086 35.0615 9.30548 35.4849 9.82927 35.4849Z" fill="#00799E"/>
<path d="M9.82927 39.2651C10.3531 39.2651 10.7777 38.8418 10.7777 38.3196C10.7777 37.7974 10.3531 37.374 9.82927 37.374C9.30548 37.374 8.88086 37.7974 8.88086 38.3196C8.88086 38.8418 9.30548 39.2651 9.82927 39.2651Z" fill="#00799E"/>
<path d="M9.82927 43.0454C10.3531 43.0454 10.7777 42.6221 10.7777 42.0999C10.7777 41.5776 10.3531 41.1543 9.82927 41.1543C9.30548 41.1543 8.88086 41.5776 8.88086 42.0999C8.88086 42.6221 9.30548 43.0454 9.82927 43.0454Z" fill="#00799E"/>
<path d="M9.82927 46.8257C10.3531 46.8257 10.7777 46.4023 10.7777 45.8801C10.7777 45.3579 10.3531 44.9346 9.82927 44.9346C9.30548 44.9346 8.88086 45.3579 8.88086 45.8801C8.88086 46.4023 9.30548 46.8257 9.82927 46.8257Z" fill="#00799E"/>
<path d="M9.82927 50.606C10.3531 50.606 10.7777 50.1826 10.7777 49.6604C10.7777 49.1382 10.3531 48.7148 9.82927 48.7148C9.30548 48.7148 8.88086 49.1382 8.88086 49.6604C8.88086 50.1826 9.30548 50.606 9.82927 50.606Z" fill="#00799E"/>
<path d="M9.82927 54.3872C10.3531 54.3872 10.7777 53.9639 10.7777 53.4416C10.7777 52.9194 10.3531 52.4961 9.82927 52.4961C9.30548 52.4961 8.88086 52.9194 8.88086 53.4416C8.88086 53.9639 9.30548 54.3872 9.82927 54.3872Z" fill="#00799E"/>
</g>
<path d="M102.597 65.0918C101.482 65.0918 100.427 64.4543 99.9373 63.394C99.8623 63.2313 99.7339 63.122 99.5333 63.0513L72.7824 53.5477C72.7717 53.5437 72.7584 53.5384 72.7263 53.5304C71.8581 53.301 71.1438 52.6889 70.7866 51.866C70.4308 51.0445 70.4723 50.1043 70.899 49.3174C72.5912 46.1994 73.4861 42.6652 73.4861 39.0964C73.4861 35.5275 72.5243 31.7346 70.7064 28.5272C70.2007 27.635 70.2007 26.5441 70.7064 25.6532C73.1811 21.2909 76.8089 17.69 81.1964 15.2375C85.263 12.9649 89.8913 11.7646 94.5812 11.7646C109.7 11.7646 121.998 24.0262 121.998 39.0977C121.998 50.7431 114.585 61.1242 103.553 64.9304C103.237 65.0398 102.914 65.0918 102.595 65.0918H102.597ZM77.479 49.016L101.498 57.55C102.239 57.8127 102.914 58.1942 103.498 58.6729C111.136 55.2188 116.143 47.585 116.143 39.0977C116.143 27.2456 106.472 17.6033 94.5825 17.6033C90.8932 17.6033 87.2548 18.5462 84.0604 20.332C81.0613 22.0084 78.5131 24.3663 76.6189 27.2056C78.406 30.8958 79.3438 34.9714 79.3438 39.0964C79.3438 42.4932 78.7043 45.8686 77.479 49.016Z" fill="#00799E"/>
<path d="M101.848 51.4408C109.056 51.4408 114.899 45.6149 114.899 38.4284C114.899 31.2419 109.056 25.416 101.848 25.416C94.6393 25.416 88.7959 31.2419 88.7959 38.4284C88.7959 45.6149 94.6393 51.4408 101.848 51.4408Z" fill="#00799E"/>
<path d="M72.5416 81.0293C71.2508 81.0293 69.9693 80.6492 68.867 79.9064C67.0558 78.6874 65.9736 76.6576 65.9736 74.4785V56.6943C65.9736 55.8995 66.2987 55.1406 66.8726 54.5898C68.3855 53.1388 69.6763 51.4824 70.7077 49.6647C70.7705 49.554 70.8388 49.4313 70.9043 49.3099C71.5504 48.1296 72.9202 47.5415 74.2244 47.8856C74.413 47.9349 74.5883 47.9896 74.7595 48.051L101.498 57.5505C103.185 58.1493 104.52 59.3563 105.256 60.95C106.013 62.5917 106.062 64.4948 105.394 66.1712C104.733 67.8289 103.438 69.1159 101.75 69.7934L75.0003 80.5519C74.2057 80.8706 73.371 81.028 72.5416 81.028V81.0293ZM71.83 57.8973V74.4798C71.83 74.7919 71.9999 74.9719 72.143 75.0679C72.2861 75.164 72.5189 75.2546 72.8092 75.1386L99.5573 64.3801C99.7593 64.2988 99.881 64.1854 99.9492 64.0147C100.027 63.82 100.02 63.5813 99.9332 63.3919C99.8596 63.2318 99.7312 63.1225 99.5306 63.0518L74.7488 54.2471C73.8806 55.5447 72.9041 56.765 71.8273 57.8973H71.83Z" fill="#00799E"/>
<path d="M51.9281 66.4298C47.5901 66.4298 43.268 65.3935 39.4329 63.4317C35.7235 61.5353 32.4436 58.768 29.9448 55.4299C29.0151 54.1882 29.2211 52.4385 30.413 51.4449C31.2704 50.7301 31.7627 49.6819 31.7627 48.5709V29.1597C31.7627 28.0928 31.3266 27.1086 30.5334 26.3898C29.407 25.3668 29.2545 23.6558 30.1829 22.4515C32.6884 19.2014 35.9483 16.5114 39.6108 14.6724C43.454 12.7426 47.5981 11.7637 51.9295 11.7637C61.7935 11.7637 70.9418 17.0862 75.8056 25.6536C78.1212 29.7359 79.3451 34.385 79.3451 39.0967C79.3451 43.8085 78.2068 48.1282 76.0518 52.0971C75.9688 52.2478 75.8899 52.3905 75.811 52.5319C74.4947 54.8511 72.8547 56.9569 70.9325 58.7987C65.7998 63.7198 59.0513 66.4298 51.9295 66.4298H51.9281ZM36.1195 53.7108C37.8344 55.5512 39.8703 57.0943 42.1042 58.2359C45.1608 59.7989 48.4649 60.5911 51.9268 60.5911C57.5276 60.5911 62.8342 58.4599 66.87 54.5897C68.3829 53.1387 69.6737 51.4823 70.7051 49.6645C70.768 49.5538 70.8362 49.4311 70.9017 49.3098C72.5899 46.1997 73.4848 42.6656 73.4848 39.0967C73.4848 35.5279 72.523 31.735 70.7051 28.5276C66.8793 21.7887 59.684 17.6024 51.9268 17.6024C45.934 17.6024 40.3479 20.0189 36.2867 24.2999C37.1468 25.7603 37.6163 27.438 37.6163 29.1597V48.5709C37.6163 50.4154 37.088 52.1918 36.1182 53.7108H36.1195Z" fill="#00799E"/>
<path d="M59.1913 51.4408C66.3996 51.4408 72.243 45.6149 72.243 38.4284C72.243 31.2419 66.3996 25.416 59.1913 25.416C51.9831 25.416 46.1396 31.2419 46.1396 38.4284C46.1396 45.6149 51.9831 51.4408 59.1913 51.4408Z" fill="#00799E"/>
</g>
</g>
<defs>
<clipPath id="clip0_180_59">
<rect width="122" height="137" fill="white"/>
</clipPath>
</defs>
</svg>
